<?xml version="1.0" encoding="UTF-8" ?>
<svg version="1.1" width="64" height="128" xmlns="http://www.w3.org/2000/svg" shape-rendering="crispEdges">
<rect x="31" y="0" width="2" height="1" fill="#FFFFFF" />
<rect x="30" y="1" width="1" height="1" fill="#FFFFFF" />
<rect x="31" y="1" width="2" height="94" fill="#EEC39A" />
<rect x="33" y="1" width="1" height="1" fill="#FFFFFF" />
<rect x="29" y="2" width="1" height="1" fill="#FFFFFF" />
<rect x="30" y="2" width="1" height="93" fill="#EEC39A" />
<rect x="33" y="2" width="1" height="93" fill="#EEC39A" />
<rect x="34" y="2" width="1" height="1" fill="#FFFFFF" />
<rect x="28" y="3" width="1" height="1" fill="#FFFFFF" />
<rect x="29" y="3" width="1" height="92" fill="#EEC39A" />
<rect x="34" y="3" width="1" height="92" fill="#EEC39A" />
<rect x="35" y="3" width="1" height="1" fill="#FFFFFF" />
<rect x="27" y="4" width="1" height="1" fill="#FFFFFF" />
<rect x="28" y="4" width="1" height="91" fill="#EEC39A" />
<rect x="35" y="4" width="1" height="91" fill="#EEC39A" />
<rect x="36" y="4" width="1" height="1" fill="#FFFFFF" />
<rect x="26" y="5" width="1" height="1" fill="#FFFFFF" />
<rect x="27" y="5" width="1" height="90" fill="#EEC39A" />
<rect x="36" y="5" width="1" height="90" fill="#EEC39A" />
<rect x="37" y="5" width="1" height="1" fill="#FFFFFF" />
<rect x="25" y="6" width="1" height="1" fill="#FFFFFF" />
<rect x="26" y="6" width="1" height="89" fill="#EEC39A" />
<rect x="37" y="6" width="1" height="89" fill="#EEC39A" />
<rect x="38" y="6" width="1" height="1" fill="#FFFFFF" />
<rect x="24" y="7" width="1" height="1" fill="#FFFFFF" />
<rect x="25" y="7" width="1" height="88" fill="#EEC39A" />
<rect x="38" y="7" width="1" height="88" fill="#EEC39A" />
<rect x="39" y="7" width="1" height="1" fill="#FFFFFF" />
<rect x="23" y="8" width="1" height="1" fill="#FFFFFF" />
<rect x="24" y="8" width="1" height="87" fill="#EEC39A" />
<rect x="39" y="8" width="1" height="87" fill="#EEC39A" />
<rect x="40" y="8" width="1" height="1" fill="#FFFFFF" />
<rect x="22" y="9" width="1" height="1" fill="#FFFFFF" />
<rect x="23" y="9" width="1" height="86" fill="#EEC39A" />
<rect x="40" y="9" width="1" height="86" fill="#EEC39A" />
<rect x="41" y="9" width="1" height="1" fill="#FFFFFF" />
<rect x="21" y="10" width="1" height="1" fill="#FFFFFF" />
<rect x="22" y="10" width="1" height="85" fill="#EEC39A" />
<rect x="41" y="10" width="1" height="85" fill="#EEC39A" />
<rect x="42" y="10" width="1" height="1" fill="#FFFFFF" />
<rect x="20" y="11" width="1" height="1" fill="#FFFFFF" />
<rect x="21" y="11" width="1" height="84" fill="#EEC39A" />
<rect x="42" y="11" width="1" height="84" fill="#EEC39A" />
<rect x="43" y="11" width="1" height="1" fill="#FFFFFF" />
<rect x="19" y="12" width="1" height="1" fill="#FFFFFF" />
<rect x="20" y="12" width="1" height="83" fill="#EEC39A" />
<rect x="43" y="12" width="1" height="83" fill="#EEC39A" />
<rect x="44" y="12" width="1" height="1" fill="#FFFFFF" />
<rect x="18" y="13" width="1" height="1" fill="#FFFFFF" />
<rect x="19" y="13" width="1" height="82" fill="#EEC39A" />
<rect x="44" y="13" width="1" height="82" fill="#EEC39A" />
<rect x="45" y="13" width="1" height="1" fill="#FFFFFF" />
<rect x="17" y="14" width="1" height="1" fill="#FFFFFF" />
<rect x="18" y="14" width="1" height="81" fill="#EEC39A" />
<rect x="45" y="14" width="1" height="81" fill="#EEC39A" />
<rect x="46" y="14" width="1" height="1" fill="#FFFFFF" />
<rect x="16" y="15" width="1" height="80" fill="#FFFFFF" />
<rect x="17" y="15" width="1" height="80" fill="#EEC39A" />
<rect x="46" y="15" width="1" height="80" fill="#EEC39A" />
<rect x="47" y="15" width="1" height="80" fill="#FFFFFF" />
<rect x="0" y="95" width="64" height="1" fill="#000000" />
<rect x="1" y="96" width="62" height="1" fill="#000000" />
<rect x="2" y="97" width="60" height="1" fill="#000000" />
<rect x="4" y="98" width="56" height="1" fill="#000000" />
<rect x="5" y="99" width="54" height="1" fill="#000000" />
<rect x="6" y="100" width="52" height="1" fill="#000000" />
<rect x="7" y="101" width="50" height="1" fill="#000000" />
<rect x="9" y="102" width="46" height="1" fill="#000000" />
<rect x="10" y="103" width="44" height="1" fill="#000000" />
<rect x="11" y="104" width="42" height="1" fill="#000000" />
<rect x="12" y="105" width="40" height="1" fill="#000000" />
<rect x="14" y="106" width="36" height="1" fill="#000000" />
<rect x="15" y="107" width="34" height="1" fill="#000000" />
<rect x="16" y="108" width="32" height="1" fill="#000000" />
<rect x="17" y="109" width="30" height="1" fill="#000000" />
<rect x="19" y="110" width="26" height="1" fill="#000000" />
<rect x="20" y="111" width="24" height="1" fill="#000000" />
<rect x="25" y="112" width="14" height="16" fill="#000000" />
</svg>